<mxfile host="65bd71144e">
    <diagram id="YkwEZ4TlYNBEh3vG31s5" name="Page-1">
        <mxGraphModel dx="399" dy="471" grid="0" gridSize="10" guides="1" tooltips="1" connect="1" arrows="1" fold="1" page="1" pageScale="1" pageWidth="850" pageHeight="1100" math="0" shadow="0">
            <root>
                <mxCell id="0"/>
                <mxCell id="1" parent="0"/>
                <mxCell id="34" value="&lt;h3 class=&quot;pageShadowHasTransparentBackground&quot;&gt;&lt;br&gt;&lt;/h3&gt;" style="text;html=1;align=center;verticalAlign=middle;resizable=0;points=[];autosize=1;strokeColor=none;fillColor=none;rounded=1;" vertex="1" parent="1">
                    <mxGeometry x="257" y="145" width="18" height="57" as="geometry"/>
                </mxCell>
                <mxCell id="45" value="Step 1: Define Core Role Hierarchy" style="text;html=1;align=center;verticalAlign=middle;resizable=0;points=[];autosize=1;strokeColor=none;fillColor=#6666FF;rounded=1;" vertex="1" parent="1">
                    <mxGeometry x="322" y="194" width="206" height="26" as="geometry"/>
                </mxCell>
                <mxCell id="46" value="Top level manageement" style="text;html=1;align=center;verticalAlign=middle;resizable=0;points=[];autosize=1;strokeColor=none;fillColor=#3333FF;rounded=1;" vertex="1" parent="1">
                    <mxGeometry x="359" y="233" width="145" height="26" as="geometry"/>
                </mxCell>
                <mxCell id="52" value="1 : Admin" style="text;html=1;align=center;verticalAlign=middle;resizable=0;points=[];autosize=1;strokeColor=none;fillColor=none;rounded=1;" vertex="1" parent="1">
                    <mxGeometry x="397.5" y="268" width="68" height="26" as="geometry"/>
                </mxCell>
                <mxCell id="53" value="2. CLO" style="text;html=1;align=center;verticalAlign=middle;resizable=0;points=[];autosize=1;strokeColor=none;fillColor=none;rounded=1;" vertex="1" parent="1">
                    <mxGeometry x="397" y="292" width="56" height="26" as="geometry"/>
                </mxCell>
                <mxCell id="55" value="Mid-Level Management:" style="text;html=1;align=center;verticalAlign=middle;resizable=0;points=[];autosize=1;strokeColor=none;fillColor=#3333FF;rounded=1;" vertex="1" parent="1">
                    <mxGeometry x="352" y="322" width="147" height="26" as="geometry"/>
                </mxCell>
                <mxCell id="56" value="&lt;strong class=&quot;pageShadowHasTransparentBackground&quot;&gt;Managers&lt;/strong&gt; for each department (Shipment, Order Fulfillment, etc.)." style="text;html=1;align=center;verticalAlign=middle;resizable=0;points=[];autosize=1;strokeColor=none;fillColor=none;rounded=1;" vertex="1" parent="1">
                    <mxGeometry x="240" y="359" width="371" height="26" as="geometry"/>
                </mxCell>
                <mxCell id="59" value="Ground-Level Management:" style="text;html=1;align=center;verticalAlign=middle;resizable=0;points=[];autosize=1;strokeColor=none;fillColor=#3333FF;rounded=1;" vertex="1" parent="1">
                    <mxGeometry x="342" y="396" width="167" height="26" as="geometry"/>
                </mxCell>
                <mxCell id="60" value="&lt;strong class=&quot;pageShadowHasTransparentBackground&quot;&gt;Supervisors&lt;/strong&gt; working under specific managers." style="text;html=1;align=center;verticalAlign=middle;resizable=0;points=[];autosize=1;strokeColor=none;fillColor=none;rounded=1;" vertex="1" parent="1">
                    <mxGeometry x="291" y="433" width="269" height="26" as="geometry"/>
                </mxCell>
                <mxCell id="61" value="Step 2: Define Role-Specific Responsibilities" style="text;html=1;align=center;verticalAlign=middle;resizable=0;points=[];autosize=1;strokeColor=none;fillColor=#6666FF;rounded=1;" vertex="1" parent="1">
                    <mxGeometry x="298" y="470" width="255" height="26" as="geometry"/>
                </mxCell>
                <mxCell id="62" value="&lt;h4 class=&quot;pageShadowHasTransparentBackground&quot;&gt;&lt;strong class=&quot;pageShadowHasTransparentBackground&quot;&gt;1. Admin&lt;/strong&gt;&lt;/h4&gt;&lt;div&gt;&lt;strong class=&quot;pageShadowHasTransparentBackground&quot;&gt;Primary Responsibilities&lt;br&gt;&lt;/strong&gt;&lt;/div&gt;&lt;div&gt;&lt;strong class=&quot;pageShadowHasTransparentBackground&quot;&gt;&lt;li class=&quot;pageShadowHasTransparentBackground&quot;&gt;Oversee the entire system.&lt;/li&gt;&lt;li class=&quot;pageShadowHasTransparentBackground&quot;&gt;Assign roles and permissions.&lt;/li&gt;&lt;li class=&quot;pageShadowHasTransparentBackground&quot;&gt;Manage sensitive configurations and system-wide settings.&lt;/li&gt;&lt;li class=&quot;pageShadowHasTransparentBackground&quot;&gt;Approve or revoke user access.&lt;/li&gt;&lt;/strong&gt;&lt;/div&gt;" style="text;html=1;align=center;verticalAlign=middle;resizable=0;points=[];autosize=1;fillColor=#f5f5f5;fontColor=#333333;strokeColor=#666666;rounded=1;" vertex="1" parent="1">
                    <mxGeometry x="250" y="506" width="374" height="154" as="geometry"/>
                </mxCell>
                <mxCell id="64" value="&lt;h4 class=&quot;pageShadowHasTransparentBackground&quot;&gt;&lt;strong class=&quot;pageShadowHasTransparentBackground&quot;&gt;2.Chief Logistics Officer (CLO)&lt;/strong&gt;&lt;/h4&gt;&lt;div&gt;&lt;strong class=&quot;pageShadowHasTransparentBackground&quot;&gt;Primary Responsibilities&lt;/strong&gt;&lt;/div&gt;&lt;div&gt;&lt;span style=&quot;font-weight: bold; background-color: initial;&quot;&gt;&lt;br&gt;&lt;/span&gt;&lt;/div&gt;&lt;div&gt;A). Monitor overall logistics operations.&lt;br&gt;&lt;/div&gt;&lt;div&gt;B)&amp;nbsp;Plan strategies to optimize supply chain efficiency.&lt;/div&gt;&lt;div&gt;C).Ensure inter-department collaboration&lt;/div&gt;&lt;div&gt;D).Approve critical department decisions (budgets, targets, etc.).&lt;/div&gt;" style="text;html=1;align=center;verticalAlign=middle;resizable=0;points=[];autosize=1;strokeColor=#666666;fillColor=#f5f5f5;fontColor=#333333;rounded=1;" vertex="1" parent="1">
                    <mxGeometry x="252.5" y="685" width="360" height="145" as="geometry"/>
                </mxCell>
                <mxCell id="65" value="&lt;h4 class=&quot;pageShadowHasTransparentBackground&quot;&gt;&lt;span style=&quot;font-weight: normal;&quot; class=&quot;pageShadowHasTransparentBackground&quot;&gt;3.Departmental Managers&lt;/span&gt;&lt;/h4&gt;&lt;div&gt;A) &lt;strong class=&quot;pageShadowHasTransparentBackground&quot;&gt;Shipment Manager :&lt;/strong&gt;&lt;br&gt;&lt;/div&gt;&lt;div&gt;&lt;strong class=&quot;pageShadowHasTransparentBackground&quot;&gt;&lt;br&gt;&lt;/strong&gt;&lt;/div&gt;&lt;div&gt;&lt;strong class=&quot;pageShadowHasTransparentBackground&quot;&gt;a): Manage shipment scheduling and tracking.&lt;/strong&gt;&lt;/div&gt;&lt;div&gt;&lt;strong class=&quot;pageShadowHasTransparentBackground&quot;&gt;&lt;br&gt;&lt;/strong&gt;&lt;/div&gt;&lt;div&gt;&lt;strong class=&quot;pageShadowHasTransparentBackground&quot;&gt;c).Ensure timely shipment delivery.&lt;/strong&gt;&lt;/div&gt;&lt;div&gt;&lt;strong class=&quot;pageShadowHasTransparentBackground&quot;&gt;d).Analyze shipment costs and performance.&lt;/strong&gt;&lt;/div&gt;&lt;div&gt;&lt;strong class=&quot;pageShadowHasTransparentBackground&quot;&gt;&lt;br&gt;&lt;/strong&gt;&lt;/div&gt;&lt;div&gt;&lt;strong class=&quot;pageShadowHasTransparentBackground&quot;&gt;&lt;h5 class=&quot;pageShadowHasTransparentBackground&quot;&gt;b) &lt;strong class=&quot;pageShadowHasTransparentBackground&quot;&gt;Order Fulfillment Manager&lt;/strong&gt;&lt;/h5&gt;&lt;ul class=&quot;pageShadowHasTransparentBackground&quot;&gt;&lt;li class=&quot;pageShadowHasTransparentBackground&quot;&gt;Oversee order processing and accuracy.&lt;/li&gt;&lt;li class=&quot;pageShadowHasTransparentBackground&quot;&gt;Coordinate between inventory and shipping teams.&lt;/li&gt;&lt;/ul&gt;&lt;/strong&gt;&lt;/div&gt;&lt;div&gt;&lt;strong class=&quot;pageShadowHasTransparentBackground&quot;&gt;&lt;h5 class=&quot;pageShadowHasTransparentBackground&quot;&gt;c) &lt;strong class=&quot;pageShadowHasTransparentBackground&quot;&gt;Inventory Manager&lt;/strong&gt;&lt;/h5&gt;&lt;ul class=&quot;pageShadowHasTransparentBackground&quot;&gt;&lt;li class=&quot;pageShadowHasTransparentBackground&quot;&gt;Monitor inventory levels.&lt;/li&gt;&lt;li class=&quot;pageShadowHasTransparentBackground&quot;&gt;Prevent overstocking or understocking issues.&lt;/li&gt;&lt;/ul&gt;&lt;h5 class=&quot;pageShadowHasTransparentBackground&quot;&gt;d) &lt;strong class=&quot;pageShadowHasTransparentBackground&quot;&gt;Transportation Manager&lt;/strong&gt;&lt;/h5&gt;&lt;ul class=&quot;pageShadowHasTransparentBackground&quot;&gt;&lt;li class=&quot;pageShadowHasTransparentBackground&quot;&gt;Plan and optimize transportation routes.&lt;/li&gt;&lt;li class=&quot;pageShadowHasTransparentBackground&quot;&gt;Ensure vehicle availability and maintenance.&lt;/li&gt;&lt;/ul&gt;&lt;h5 class=&quot;pageShadowHasTransparentBackground&quot;&gt;e) &lt;strong class=&quot;pageShadowHasTransparentBackground&quot;&gt;Delivery Manager&lt;/strong&gt;&lt;/h5&gt;&lt;ul class=&quot;pageShadowHasTransparentBackground&quot;&gt;&lt;li class=&quot;pageShadowHasTransparentBackground&quot;&gt;Supervise last-mile delivery operations.&lt;/li&gt;&lt;li class=&quot;pageShadowHasTransparentBackground&quot;&gt;Track delivery performance and customer satisfaction.&lt;/li&gt;&lt;/ul&gt;&lt;h5 class=&quot;pageShadowHasTransparentBackground&quot;&gt;f) &lt;strong class=&quot;pageShadowHasTransparentBackground&quot;&gt;Warehouse Manager&lt;/strong&gt;&lt;/h5&gt;&lt;ul class=&quot;pageShadowHasTransparentBackground&quot;&gt;&lt;li class=&quot;pageShadowHasTransparentBackground&quot;&gt;Manage warehouse operations and storage efficiency.&lt;/li&gt;&lt;li class=&quot;pageShadowHasTransparentBackground&quot;&gt;Coordinate inventory storage and retrieval.&lt;/li&gt;&lt;/ul&gt;&lt;h5 class=&quot;pageShadowHasTransparentBackground&quot;&gt;g) &lt;strong class=&quot;pageShadowHasTransparentBackground&quot;&gt;Customer Support Manager&lt;/strong&gt;&lt;/h5&gt;&lt;ul class=&quot;pageShadowHasTransparentBackground&quot;&gt;&lt;li class=&quot;pageShadowHasTransparentBackground&quot;&gt;Oversee customer issue resolution.&lt;/li&gt;&lt;li class=&quot;pageShadowHasTransparentBackground&quot;&gt;Improve post-delivery feedback mechanisms.&lt;/li&gt;&lt;/ul&gt;&lt;h5 class=&quot;pageShadowHasTransparentBackground&quot;&gt;h) &lt;strong class=&quot;pageShadowHasTransparentBackground&quot;&gt;Financial Manager&lt;/strong&gt;&lt;/h5&gt;&lt;ul class=&quot;pageShadowHasTransparentBackground&quot;&gt;&lt;li class=&quot;pageShadowHasTransparentBackground&quot;&gt;Track logistics-related expenses.&lt;/li&gt;&lt;li class=&quot;pageShadowHasTransparentBackground&quot;&gt;Manage department-wise budgets.&lt;/li&gt;&lt;/ul&gt;&lt;h5 class=&quot;pageShadowHasTransparentBackground&quot;&gt;i) &lt;strong class=&quot;pageShadowHasTransparentBackground&quot;&gt;Analytics and Reporting Manager&lt;/strong&gt;&lt;/h5&gt;&lt;ul class=&quot;pageShadowHasTransparentBackground&quot;&gt;&lt;li class=&quot;pageShadowHasTransparentBackground&quot;&gt;Provide data insights for decision-making.&lt;/li&gt;&lt;li class=&quot;pageShadowHasTransparentBackground&quot;&gt;Generate reports for CLO and admin review.&lt;/li&gt;&lt;/ul&gt;&lt;hr&gt;&lt;/strong&gt;&lt;/div&gt;" style="text;html=1;align=center;verticalAlign=middle;resizable=0;points=[];autosize=1;strokeColor=#666666;fillColor=#f5f5f5;fontColor=#333333;rounded=1;" vertex="1" parent="1">
                    <mxGeometry x="242" y="848" width="369" height="867" as="geometry"/>
                </mxCell>
                <mxCell id="66" value="&lt;h4 class=&quot;pageShadowHasTransparentBackground&quot;&gt;&lt;strong style=&quot;background-color: initial;&quot; class=&quot;pageShadowHasTransparentBackground&quot;&gt;.&lt;/strong&gt;&lt;br&gt;&lt;/h4&gt;" style="text;html=1;align=center;verticalAlign=middle;resizable=0;points=[];autosize=1;strokeColor=none;fillColor=none;rounded=1;" vertex="1" parent="1">
                    <mxGeometry x="421.5" y="1051" width="21" height="58" as="geometry"/>
                </mxCell>
                <mxCell id="68" value="&lt;h4 class=&quot;pageShadowHasTransparentBackground&quot;&gt;&lt;strong class=&quot;pageShadowHasTransparentBackground&quot;&gt;4. Supervisors&lt;/strong&gt;&lt;/h4&gt;&lt;p class=&quot;pageShadowHasTransparentBackground&quot;&gt;Supervisors report to their respective managers and handle day-to-day operations for their departments.&lt;/p&gt;&lt;p class=&quot;pageShadowHasTransparentBackground&quot;&gt;For example:&lt;/p&gt;&lt;ul class=&quot;pageShadowHasTransparentBackground&quot;&gt;&lt;li class=&quot;pageShadowHasTransparentBackground&quot;&gt;&lt;strong class=&quot;pageShadowHasTransparentBackground&quot;&gt;Shipment Supervisor&lt;/strong&gt;: Ensures proper handling and dispatch of shipments.&lt;/li&gt;&lt;li class=&quot;pageShadowHasTransparentBackground&quot;&gt;&lt;strong class=&quot;pageShadowHasTransparentBackground&quot;&gt;Delivery Supervisor&lt;/strong&gt;: Monitors delivery staff performance.&lt;/li&gt;&lt;/ul&gt;" style="text;html=1;align=center;verticalAlign=middle;resizable=0;points=[];autosize=1;strokeColor=#666666;fillColor=#f5f5f5;fontColor=#333333;rounded=1;" vertex="1" parent="1">
                    <mxGeometry x="136" y="1733" width="570" height="164" as="geometry"/>
                </mxCell>
                <mxCell id="69" value="Step 3: Define Permissions for Each Role" style="text;html=1;align=center;verticalAlign=middle;resizable=0;points=[];autosize=1;strokeColor=none;fillColor=#6666FF;rounded=1;" vertex="1" parent="1">
                    <mxGeometry x="312" y="1920" width="239" height="26" as="geometry"/>
                </mxCell>
                <mxCell id="70" value="&lt;h3 class=&quot;pageShadowHasTransparentBackground&quot;&gt;&lt;strong class=&quot;pageShadowHasTransparentBackground&quot;&gt;Permission Categories&lt;/strong&gt;&lt;/h3&gt;&lt;ol class=&quot;pageShadowHasTransparentBackground&quot;&gt;&lt;li class=&quot;pageShadowHasTransparentBackground&quot;&gt;&lt;strong class=&quot;pageShadowHasTransparentBackground&quot;&gt;CRUD Permissions&lt;/strong&gt;: Define if a role can Create, Read, Update, or Delete a resource.&lt;ul class=&quot;pageShadowHasTransparentBackground&quot;&gt;&lt;li class=&quot;pageShadowHasTransparentBackground&quot;&gt;Example: Create Order, Read Shipment, etc.&lt;/li&gt;&lt;/ul&gt;&lt;/li&gt;&lt;li class=&quot;pageShadowHasTransparentBackground&quot;&gt;&lt;strong class=&quot;pageShadowHasTransparentBackground&quot;&gt;Role-Based Scopes&lt;/strong&gt;: Permissions tied to specific department operations.&lt;/li&gt;&lt;li class=&quot;pageShadowHasTransparentBackground&quot;&gt;&lt;strong class=&quot;pageShadowHasTransparentBackground&quot;&gt;Admin Permissions&lt;/strong&gt;: Reserved for Admin and CLO.&lt;/li&gt;&lt;/ol&gt;" style="text;html=1;align=center;verticalAlign=middle;resizable=0;points=[];autosize=1;strokeColor=#666666;fillColor=#f5f5f5;fontColor=#333333;rounded=1;" vertex="1" parent="1">
                    <mxGeometry x="164.5" y="1957" width="513" height="150" as="geometry"/>
                </mxCell>
                <mxCell id="78" value="Permission Design by Role" style="shape=table;startSize=30;container=1;collapsible=0;childLayout=tableLayout;fontStyle=1;align=center;rounded=1;labelBackgroundColor=none;fillColor=#3333FF;" vertex="1" parent="1">
                    <mxGeometry x="160" y="2130" width="476.5" height="373" as="geometry"/>
                </mxCell>
                <mxCell id="79" value="" style="shape=tableRow;horizontal=0;startSize=0;swimlaneHead=0;swimlaneBody=0;top=0;left=0;bottom=0;right=0;collapsible=0;dropTarget=0;fillColor=none;points=[[0,0.5],[1,0.5]];portConstraint=eastwest;rounded=1;labelBackgroundColor=#080001;" vertex="1" parent="78">
                    <mxGeometry y="30" width="476.5" height="30" as="geometry"/>
                </mxCell>
                <mxCell id="80" value="" style="shape=partialRectangle;html=1;whiteSpace=wrap;connectable=0;fillColor=none;top=0;left=0;bottom=0;right=0;overflow=hidden;rounded=1;labelBackgroundColor=#080001;" vertex="1" parent="79">
                    <mxGeometry width="20" height="30" as="geometry">
                        <mxRectangle width="20" height="30" as="alternateBounds"/>
                    </mxGeometry>
                </mxCell>
                <mxCell id="81" value="Role" style="shape=partialRectangle;html=1;whiteSpace=wrap;connectable=0;fillColor=none;top=0;left=0;bottom=0;right=0;overflow=hidden;rounded=1;labelBackgroundColor=none;" vertex="1" parent="79">
                    <mxGeometry x="20" width="61" height="30" as="geometry">
                        <mxRectangle width="61" height="30" as="alternateBounds"/>
                    </mxGeometry>
                </mxCell>
                <mxCell id="82" value="Permissions" style="shape=partialRectangle;html=1;whiteSpace=wrap;connectable=0;fillColor=none;top=0;left=0;bottom=0;right=0;overflow=hidden;rounded=1;labelBackgroundColor=none;" vertex="1" parent="79">
                    <mxGeometry x="81" width="396" height="30" as="geometry">
                        <mxRectangle width="396" height="30" as="alternateBounds"/>
                    </mxGeometry>
                </mxCell>
                <mxCell id="83" value="" style="shape=tableRow;horizontal=0;startSize=0;swimlaneHead=0;swimlaneBody=0;top=0;left=0;bottom=0;right=0;collapsible=0;dropTarget=0;fillColor=none;points=[[0,0.5],[1,0.5]];portConstraint=eastwest;rounded=1;labelBackgroundColor=#080001;" vertex="1" parent="78">
                    <mxGeometry y="60" width="476.5" height="57" as="geometry"/>
                </mxCell>
                <mxCell id="84" value="" style="shape=partialRectangle;html=1;whiteSpace=wrap;connectable=0;fillColor=none;top=0;left=0;bottom=0;right=0;overflow=hidden;rounded=1;labelBackgroundColor=#080001;" vertex="1" parent="83">
                    <mxGeometry width="20" height="57" as="geometry">
                        <mxRectangle width="20" height="57" as="alternateBounds"/>
                    </mxGeometry>
                </mxCell>
                <mxCell id="85" value="Admin" style="shape=partialRectangle;html=1;whiteSpace=wrap;connectable=0;fillColor=none;top=0;left=0;bottom=0;right=0;overflow=hidden;rounded=1;labelBackgroundColor=none;" vertex="1" parent="83">
                    <mxGeometry x="20" width="61" height="57" as="geometry">
                        <mxRectangle width="61" height="57" as="alternateBounds"/>
                    </mxGeometry>
                </mxCell>
                <mxCell id="86" value="Full access to all operations, including user creation, role management, and system-wide configurations." style="shape=partialRectangle;html=1;whiteSpace=wrap;connectable=0;fillColor=none;top=0;left=0;bottom=0;right=0;overflow=hidden;rounded=1;labelBackgroundColor=none;" vertex="1" parent="83">
                    <mxGeometry x="81" width="396" height="57" as="geometry">
                        <mxRectangle width="396" height="57" as="alternateBounds"/>
                    </mxGeometry>
                </mxCell>
                <mxCell id="87" value="" style="shape=tableRow;horizontal=0;startSize=0;swimlaneHead=0;swimlaneBody=0;top=0;left=0;bottom=0;right=0;collapsible=0;dropTarget=0;fillColor=none;points=[[0,0.5],[1,0.5]];portConstraint=eastwest;rounded=1;labelBackgroundColor=#080001;" vertex="1" parent="78">
                    <mxGeometry y="117" width="476.5" height="64" as="geometry"/>
                </mxCell>
                <mxCell id="88" value="" style="shape=partialRectangle;html=1;whiteSpace=wrap;connectable=0;fillColor=none;top=0;left=0;bottom=0;right=0;overflow=hidden;rounded=1;labelBackgroundColor=#080001;" vertex="1" parent="87">
                    <mxGeometry width="20" height="64" as="geometry">
                        <mxRectangle width="20" height="64" as="alternateBounds"/>
                    </mxGeometry>
                </mxCell>
                <mxCell id="89" value="&#10;CLO&#10;&#10;" style="shape=partialRectangle;html=1;whiteSpace=wrap;connectable=0;fillColor=none;top=0;left=0;bottom=0;right=0;overflow=hidden;rounded=1;labelBackgroundColor=none;" vertex="1" parent="87">
                    <mxGeometry x="20" width="61" height="64" as="geometry">
                        <mxRectangle width="61" height="64" as="alternateBounds"/>
                    </mxGeometry>
                </mxCell>
                <mxCell id="90" value="&#10;Read and approve actions across all departments, generate reports, and oversee system-wide operations.&#10;&#10;" style="shape=partialRectangle;html=1;whiteSpace=wrap;connectable=0;fillColor=none;top=0;left=0;bottom=0;right=0;overflow=hidden;rounded=1;labelBackgroundColor=none;" vertex="1" parent="87">
                    <mxGeometry x="81" width="396" height="64" as="geometry">
                        <mxRectangle width="396" height="64" as="alternateBounds"/>
                    </mxGeometry>
                </mxCell>
                <mxCell id="104" value="" style="shape=tableRow;horizontal=0;startSize=0;swimlaneHead=0;swimlaneBody=0;top=0;left=0;bottom=0;right=0;collapsible=0;dropTarget=0;fillColor=none;points=[[0,0.5],[1,0.5]];portConstraint=eastwest;rounded=1;labelBackgroundColor=#080001;" vertex="1" parent="78">
                    <mxGeometry y="181" width="476.5" height="64" as="geometry"/>
                </mxCell>
                <mxCell id="105" value="" style="shape=partialRectangle;html=1;whiteSpace=wrap;connectable=0;fillColor=none;top=0;left=0;bottom=0;right=0;overflow=hidden;rounded=1;labelBackgroundColor=#080001;" vertex="1" parent="104">
                    <mxGeometry width="20" height="64" as="geometry">
                        <mxRectangle width="20" height="64" as="alternateBounds"/>
                    </mxGeometry>
                </mxCell>
                <mxCell id="106" value="Department Manager" style="shape=partialRectangle;html=1;whiteSpace=wrap;connectable=0;fillColor=none;top=0;left=0;bottom=0;right=0;overflow=hidden;rounded=1;labelBackgroundColor=none;" vertex="1" parent="104">
                    <mxGeometry x="20" width="61" height="64" as="geometry">
                        <mxRectangle width="61" height="64" as="alternateBounds"/>
                    </mxGeometry>
                </mxCell>
                <mxCell id="107" value="CRUD permissions for their respective department, limited cross-department access for collaboration." style="shape=partialRectangle;html=1;whiteSpace=wrap;connectable=0;fillColor=none;top=0;left=0;bottom=0;right=0;overflow=hidden;rounded=1;labelBackgroundColor=none;" vertex="1" parent="104">
                    <mxGeometry x="81" width="396" height="64" as="geometry">
                        <mxRectangle width="396" height="64" as="alternateBounds"/>
                    </mxGeometry>
                </mxCell>
                <mxCell id="108" value="" style="shape=tableRow;horizontal=0;startSize=0;swimlaneHead=0;swimlaneBody=0;top=0;left=0;bottom=0;right=0;collapsible=0;dropTarget=0;fillColor=none;points=[[0,0.5],[1,0.5]];portConstraint=eastwest;rounded=1;labelBackgroundColor=#080001;" vertex="1" parent="78">
                    <mxGeometry y="245" width="476.5" height="64" as="geometry"/>
                </mxCell>
                <mxCell id="109" value="" style="shape=partialRectangle;html=1;whiteSpace=wrap;connectable=0;fillColor=none;top=0;left=0;bottom=0;right=0;overflow=hidden;rounded=1;labelBackgroundColor=#080001;" vertex="1" parent="108">
                    <mxGeometry width="20" height="64" as="geometry">
                        <mxRectangle width="20" height="64" as="alternateBounds"/>
                    </mxGeometry>
                </mxCell>
                <mxCell id="110" value="Supervisors" style="shape=partialRectangle;html=1;whiteSpace=wrap;connectable=0;fillColor=none;top=0;left=0;bottom=0;right=0;overflow=hidden;rounded=1;labelBackgroundColor=none;" vertex="1" parent="108">
                    <mxGeometry x="20" width="61" height="64" as="geometry">
                        <mxRectangle width="61" height="64" as="alternateBounds"/>
                    </mxGeometry>
                </mxCell>
                <mxCell id="111" value="Read and update permissions for operations under their scope (e.g., shipment tracking or order fulfillment)." style="shape=partialRectangle;html=1;whiteSpace=wrap;connectable=0;fillColor=none;top=0;left=0;bottom=0;right=0;overflow=hidden;rounded=1;labelBackgroundColor=none;" vertex="1" parent="108">
                    <mxGeometry x="81" width="396" height="64" as="geometry">
                        <mxRectangle width="396" height="64" as="alternateBounds"/>
                    </mxGeometry>
                </mxCell>
                <mxCell id="112" value="" style="shape=tableRow;horizontal=0;startSize=0;swimlaneHead=0;swimlaneBody=0;top=0;left=0;bottom=0;right=0;collapsible=0;dropTarget=0;fillColor=none;points=[[0,0.5],[1,0.5]];portConstraint=eastwest;rounded=1;labelBackgroundColor=#080001;" vertex="1" parent="78">
                    <mxGeometry y="309" width="476.5" height="64" as="geometry"/>
                </mxCell>
                <mxCell id="113" value="" style="shape=partialRectangle;html=1;whiteSpace=wrap;connectable=0;fillColor=none;top=0;left=0;bottom=0;right=0;overflow=hidden;rounded=1;labelBackgroundColor=#080001;" vertex="1" parent="112">
                    <mxGeometry width="20" height="64" as="geometry">
                        <mxRectangle width="20" height="64" as="alternateBounds"/>
                    </mxGeometry>
                </mxCell>
                <mxCell id="114" value="Staff" style="shape=partialRectangle;html=1;whiteSpace=wrap;connectable=0;fillColor=none;top=0;left=0;bottom=0;right=0;overflow=hidden;rounded=1;labelBackgroundColor=none;" vertex="1" parent="112">
                    <mxGeometry x="20" width="61" height="64" as="geometry">
                        <mxRectangle width="61" height="64" as="alternateBounds"/>
                    </mxGeometry>
                </mxCell>
                <mxCell id="115" value="Restricted permissions (e.g., read-only access or task-specific updates)." style="shape=partialRectangle;html=1;whiteSpace=wrap;connectable=0;fillColor=none;top=0;left=0;bottom=0;right=0;overflow=hidden;rounded=1;labelBackgroundColor=none;" vertex="1" parent="112">
                    <mxGeometry x="81" width="396" height="64" as="geometry">
                        <mxRectangle width="396" height="64" as="alternateBounds"/>
                    </mxGeometry>
                </mxCell>
                <mxCell id="116" value="Sample Permission Matrix" style="shape=table;startSize=26;container=1;collapsible=0;childLayout=tableLayout;fontStyle=1;align=center;rounded=1;labelBackgroundColor=none;fillColor=#3333FF;textDirection=ltr;labelPosition=center;verticalLabelPosition=middle;verticalAlign=middle;labelBorderColor=none;flipV=0;flipH=1;" vertex="1" parent="1">
                    <mxGeometry x="132" y="2576" width="585.75" height="265.25" as="geometry"/>
                </mxCell>
                <mxCell id="129" value="" style="shape=tableRow;horizontal=0;startSize=0;swimlaneHead=0;swimlaneBody=0;top=0;left=0;bottom=0;right=0;collapsible=0;dropTarget=0;fillColor=none;points=[[0,0.5],[1,0.5]];portConstraint=eastwest;rounded=1;labelBackgroundColor=none;" vertex="1" parent="116">
                    <mxGeometry y="26" width="585.75" height="34" as="geometry"/>
                </mxCell>
                <mxCell id="130" value="&lt;table class=&quot;pageShadowHasTransparentBackground&quot;&gt;&lt;thead class=&quot;pageShadowHasTransparentBackground&quot;&gt;&lt;tr class=&quot;pageShadowHasTransparentBackground&quot;&gt;&lt;th class=&quot;pageShadowHasTransparentBackground&quot;&gt;&lt;strong class=&quot;pageShadowHasTransparentBackground&quot;&gt;Permission Name&lt;/strong&gt;&lt;/th&gt;&lt;/tr&gt;&lt;/thead&gt;&lt;/table&gt;" style="shape=partialRectangle;html=1;whiteSpace=wrap;connectable=0;fillColor=none;top=0;left=0;bottom=0;right=0;overflow=hidden;rounded=1;labelBackgroundColor=none;" vertex="1" parent="129">
                    <mxGeometry width="87" height="34" as="geometry">
                        <mxRectangle width="87" height="34" as="alternateBounds"/>
                    </mxGeometry>
                </mxCell>
                <mxCell id="131" value="&lt;table&gt;&lt;tbody&gt;&lt;tr&gt;&lt;th class=&quot;pageShadowHasTransparentBackground&quot;&gt;&lt;strong class=&quot;pageShadowHasTransparentBackground&quot;&gt;&lt;/strong&gt;&lt;/th&gt;&lt;/tr&gt;&lt;/tbody&gt;&lt;/table&gt;&lt;table&gt;&lt;tbody&gt;&lt;tr&gt;&lt;th class=&quot;pageShadowHasTransparentBackground&quot;&gt;&lt;strong class=&quot;pageShadowHasTransparentBackground&quot;&gt;Admin&lt;/strong&gt;&lt;/th&gt;&lt;/tr&gt;&lt;/tbody&gt;&lt;/table&gt;" style="shape=partialRectangle;html=1;whiteSpace=wrap;connectable=0;fillColor=none;top=0;left=0;bottom=0;right=0;overflow=hidden;rounded=1;labelBackgroundColor=none;" vertex="1" parent="129">
                    <mxGeometry x="87" width="107" height="34" as="geometry">
                        <mxRectangle width="107" height="34" as="alternateBounds"/>
                    </mxGeometry>
                </mxCell>
                <mxCell id="162" value="CLO" style="shape=partialRectangle;html=1;whiteSpace=wrap;connectable=0;fillColor=none;top=0;left=0;bottom=0;right=0;overflow=hidden;rounded=1;labelBackgroundColor=none;" vertex="1" parent="129">
                    <mxGeometry x="194" width="95" height="34" as="geometry">
                        <mxRectangle width="95" height="34" as="alternateBounds"/>
                    </mxGeometry>
                </mxCell>
                <mxCell id="168" value="Manager" style="shape=partialRectangle;html=1;whiteSpace=wrap;connectable=0;fillColor=none;top=0;left=0;bottom=0;right=0;overflow=hidden;rounded=1;labelBackgroundColor=none;" vertex="1" parent="129">
                    <mxGeometry x="289" width="107" height="34" as="geometry">
                        <mxRectangle width="107" height="34" as="alternateBounds"/>
                    </mxGeometry>
                </mxCell>
                <mxCell id="174" value="Supervisor" style="shape=partialRectangle;html=1;whiteSpace=wrap;connectable=0;fillColor=none;top=0;left=0;bottom=0;right=0;overflow=hidden;rounded=1;labelBackgroundColor=none;" vertex="1" parent="129">
                    <mxGeometry x="396" width="94" height="34" as="geometry">
                        <mxRectangle width="94" height="34" as="alternateBounds"/>
                    </mxGeometry>
                </mxCell>
                <mxCell id="180" value="Staff" style="shape=partialRectangle;html=1;whiteSpace=wrap;connectable=0;fillColor=none;top=0;left=0;bottom=0;right=0;overflow=hidden;rounded=1;labelBackgroundColor=none;" vertex="1" parent="129">
                    <mxGeometry x="490" width="96" height="34" as="geometry">
                        <mxRectangle width="96" height="34" as="alternateBounds"/>
                    </mxGeometry>
                </mxCell>
                <mxCell id="117" value="" style="shape=tableRow;horizontal=0;startSize=0;swimlaneHead=0;swimlaneBody=0;top=0;left=0;bottom=0;right=0;collapsible=0;dropTarget=0;fillColor=none;points=[[0,0.5],[1,0.5]];portConstraint=eastwest;rounded=1;labelBackgroundColor=none;" vertex="1" parent="116">
                    <mxGeometry y="60" width="585.75" height="43" as="geometry"/>
                </mxCell>
                <mxCell id="118" value="Create User" style="shape=partialRectangle;html=1;whiteSpace=wrap;connectable=0;fillColor=none;top=0;left=0;bottom=0;right=0;overflow=hidden;rounded=1;labelBackgroundColor=none;" vertex="1" parent="117">
                    <mxGeometry width="87" height="43" as="geometry">
                        <mxRectangle width="87" height="43" as="alternateBounds"/>
                    </mxGeometry>
                </mxCell>
                <mxCell id="119" value="yes" style="shape=partialRectangle;html=1;whiteSpace=wrap;connectable=0;fillColor=none;top=0;left=0;bottom=0;right=0;overflow=hidden;rounded=1;labelBackgroundColor=none;" vertex="1" parent="117">
                    <mxGeometry x="87" width="107" height="43" as="geometry">
                        <mxRectangle width="107" height="43" as="alternateBounds"/>
                    </mxGeometry>
                </mxCell>
                <mxCell id="163" value="no" style="shape=partialRectangle;html=1;whiteSpace=wrap;connectable=0;fillColor=none;top=0;left=0;bottom=0;right=0;overflow=hidden;rounded=1;labelBackgroundColor=none;" vertex="1" parent="117">
                    <mxGeometry x="194" width="95" height="43" as="geometry">
                        <mxRectangle width="95" height="43" as="alternateBounds"/>
                    </mxGeometry>
                </mxCell>
                <mxCell id="169" value="no" style="shape=partialRectangle;html=1;whiteSpace=wrap;connectable=0;fillColor=none;top=0;left=0;bottom=0;right=0;overflow=hidden;rounded=1;labelBackgroundColor=none;" vertex="1" parent="117">
                    <mxGeometry x="289" width="107" height="43" as="geometry">
                        <mxRectangle width="107" height="43" as="alternateBounds"/>
                    </mxGeometry>
                </mxCell>
                <mxCell id="175" value="no" style="shape=partialRectangle;html=1;whiteSpace=wrap;connectable=0;fillColor=none;top=0;left=0;bottom=0;right=0;overflow=hidden;rounded=1;labelBackgroundColor=none;" vertex="1" parent="117">
                    <mxGeometry x="396" width="94" height="43" as="geometry">
                        <mxRectangle width="94" height="43" as="alternateBounds"/>
                    </mxGeometry>
                </mxCell>
                <mxCell id="181" value="no" style="shape=partialRectangle;html=1;whiteSpace=wrap;connectable=0;fillColor=none;top=0;left=0;bottom=0;right=0;overflow=hidden;rounded=1;labelBackgroundColor=none;" vertex="1" parent="117">
                    <mxGeometry x="490" width="96" height="43" as="geometry">
                        <mxRectangle width="96" height="43" as="alternateBounds"/>
                    </mxGeometry>
                </mxCell>
                <mxCell id="159" style="shape=tableRow;horizontal=0;startSize=0;swimlaneHead=0;swimlaneBody=0;top=0;left=0;bottom=0;right=0;collapsible=0;dropTarget=0;fillColor=none;points=[[0,0.5],[1,0.5]];portConstraint=eastwest;rounded=1;labelBackgroundColor=none;" vertex="1" parent="116">
                    <mxGeometry y="103" width="585.75" height="41" as="geometry"/>
                </mxCell>
                <mxCell id="160" value="Create Shipment" style="shape=partialRectangle;html=1;whiteSpace=wrap;connectable=0;fillColor=none;top=0;left=0;bottom=0;right=0;overflow=hidden;rounded=1;labelBackgroundColor=none;" vertex="1" parent="159">
                    <mxGeometry width="87" height="41" as="geometry">
                        <mxRectangle width="87" height="41" as="alternateBounds"/>
                    </mxGeometry>
                </mxCell>
                <mxCell id="161" value="yes" style="shape=partialRectangle;html=1;whiteSpace=wrap;connectable=0;fillColor=none;top=0;left=0;bottom=0;right=0;overflow=hidden;rounded=1;labelBackgroundColor=none;" vertex="1" parent="159">
                    <mxGeometry x="87" width="107" height="41" as="geometry">
                        <mxRectangle width="107" height="41" as="alternateBounds"/>
                    </mxGeometry>
                </mxCell>
                <mxCell id="164" value="no" style="shape=partialRectangle;html=1;whiteSpace=wrap;connectable=0;fillColor=none;top=0;left=0;bottom=0;right=0;overflow=hidden;rounded=1;labelBackgroundColor=none;" vertex="1" parent="159">
                    <mxGeometry x="194" width="95" height="41" as="geometry">
                        <mxRectangle width="95" height="41" as="alternateBounds"/>
                    </mxGeometry>
                </mxCell>
                <mxCell id="170" value="&lt;span style=&quot;color: rgb(240, 240, 240); font-family: Helvetica; font-size: 12px; font-style: normal; font-variant-ligatures: normal; font-variant-caps: normal; font-weight: 400; letter-spacing: normal; orphans: 2; text-align: center; text-indent: 0px; text-transform: none; widows: 2; word-spacing: 0px; -webkit-text-stroke-width: 0px; background-color: rgb(42, 37, 47); text-decoration-thickness: initial; text-decoration-style: initial; text-decoration-color: initial; float: none; display: inline !important;&quot;&gt;yes&lt;/span&gt;&lt;br&gt;(Shipment)" style="shape=partialRectangle;html=1;whiteSpace=wrap;connectable=0;fillColor=none;top=0;left=0;bottom=0;right=0;overflow=hidden;rounded=1;labelBackgroundColor=none;" vertex="1" parent="159">
                    <mxGeometry x="289" width="107" height="41" as="geometry">
                        <mxRectangle width="107" height="41" as="alternateBounds"/>
                    </mxGeometry>
                </mxCell>
                <mxCell id="176" value="yes&lt;br&gt;(Shipment)" style="shape=partialRectangle;html=1;whiteSpace=wrap;connectable=0;fillColor=none;top=0;left=0;bottom=0;right=0;overflow=hidden;rounded=1;labelBackgroundColor=none;" vertex="1" parent="159">
                    <mxGeometry x="396" width="94" height="41" as="geometry">
                        <mxRectangle width="94" height="41" as="alternateBounds"/>
                    </mxGeometry>
                </mxCell>
                <mxCell id="182" value="no" style="shape=partialRectangle;html=1;whiteSpace=wrap;connectable=0;fillColor=none;top=0;left=0;bottom=0;right=0;overflow=hidden;rounded=1;labelBackgroundColor=none;" vertex="1" parent="159">
                    <mxGeometry x="490" width="96" height="41" as="geometry">
                        <mxRectangle width="96" height="41" as="alternateBounds"/>
                    </mxGeometry>
                </mxCell>
                <mxCell id="155" value="" style="shape=tableRow;horizontal=0;startSize=0;swimlaneHead=0;swimlaneBody=0;top=0;left=0;bottom=0;right=0;collapsible=0;dropTarget=0;fillColor=none;points=[[0,0.5],[1,0.5]];portConstraint=eastwest;rounded=1;labelBackgroundColor=none;" vertex="1" parent="116">
                    <mxGeometry y="144" width="585.75" height="39" as="geometry"/>
                </mxCell>
                <mxCell id="156" value="View Reports" style="shape=partialRectangle;html=1;whiteSpace=wrap;connectable=0;fillColor=none;top=0;left=0;bottom=0;right=0;overflow=hidden;rounded=1;labelBackgroundColor=none;" vertex="1" parent="155">
                    <mxGeometry width="87" height="39" as="geometry">
                        <mxRectangle width="87" height="39" as="alternateBounds"/>
                    </mxGeometry>
                </mxCell>
                <mxCell id="157" value="&#10;&lt;span style=&quot;color: rgb(240, 240, 240); font-family: Helvetica; font-size: 12px; font-style: normal; font-variant-ligatures: normal; font-variant-caps: normal; font-weight: 400; letter-spacing: normal; orphans: 2; text-align: center; text-indent: 0px; text-transform: none; widows: 2; word-spacing: 0px; -webkit-text-stroke-width: 0px; background-color: rgb(42, 37, 47); text-decoration-thickness: initial; text-decoration-style: initial; text-decoration-color: initial; float: none; display: inline !important;&quot;&gt;yes&lt;/span&gt;&#10;&#10;" style="shape=partialRectangle;html=1;whiteSpace=wrap;connectable=0;fillColor=none;top=0;left=0;bottom=0;right=0;overflow=hidden;rounded=1;labelBackgroundColor=none;" vertex="1" parent="155">
                    <mxGeometry x="87" width="107" height="39" as="geometry">
                        <mxRectangle width="107" height="39" as="alternateBounds"/>
                    </mxGeometry>
                </mxCell>
                <mxCell id="165" value="&#10;&lt;span style=&quot;color: rgb(240, 240, 240); font-family: Helvetica; font-size: 12px; font-style: normal; font-variant-ligatures: normal; font-variant-caps: normal; font-weight: 400; letter-spacing: normal; orphans: 2; text-align: center; text-indent: 0px; text-transform: none; widows: 2; word-spacing: 0px; -webkit-text-stroke-width: 0px; background-color: rgb(42, 37, 47); text-decoration-thickness: initial; text-decoration-style: initial; text-decoration-color: initial; float: none; display: inline !important;&quot;&gt;yes&lt;/span&gt;&#10;&#10;" style="shape=partialRectangle;html=1;whiteSpace=wrap;connectable=0;fillColor=none;top=0;left=0;bottom=0;right=0;overflow=hidden;rounded=1;labelBackgroundColor=none;" vertex="1" parent="155">
                    <mxGeometry x="194" width="95" height="39" as="geometry">
                        <mxRectangle width="95" height="39" as="alternateBounds"/>
                    </mxGeometry>
                </mxCell>
                <mxCell id="171" value="yes" style="shape=partialRectangle;html=1;whiteSpace=wrap;connectable=0;fillColor=none;top=0;left=0;bottom=0;right=0;overflow=hidden;rounded=1;labelBackgroundColor=none;" vertex="1" parent="155">
                    <mxGeometry x="289" width="107" height="39" as="geometry">
                        <mxRectangle width="107" height="39" as="alternateBounds"/>
                    </mxGeometry>
                </mxCell>
                <mxCell id="177" value="no" style="shape=partialRectangle;html=1;whiteSpace=wrap;connectable=0;fillColor=none;top=0;left=0;bottom=0;right=0;overflow=hidden;rounded=1;labelBackgroundColor=none;" vertex="1" parent="155">
                    <mxGeometry x="396" width="94" height="39" as="geometry">
                        <mxRectangle width="94" height="39" as="alternateBounds"/>
                    </mxGeometry>
                </mxCell>
                <mxCell id="183" value="no" style="shape=partialRectangle;html=1;whiteSpace=wrap;connectable=0;fillColor=none;top=0;left=0;bottom=0;right=0;overflow=hidden;rounded=1;labelBackgroundColor=none;" vertex="1" parent="155">
                    <mxGeometry x="490" width="96" height="39" as="geometry">
                        <mxRectangle width="96" height="39" as="alternateBounds"/>
                    </mxGeometry>
                </mxCell>
                <mxCell id="121" value="" style="shape=tableRow;horizontal=0;startSize=0;swimlaneHead=0;swimlaneBody=0;top=0;left=0;bottom=0;right=0;collapsible=0;dropTarget=0;fillColor=none;points=[[0,0.5],[1,0.5]];portConstraint=eastwest;rounded=1;labelBackgroundColor=none;" vertex="1" parent="116">
                    <mxGeometry y="183" width="585.75" height="41" as="geometry"/>
                </mxCell>
                <mxCell id="122" value="Update Inventory" style="shape=partialRectangle;html=1;whiteSpace=wrap;connectable=0;fillColor=none;top=0;left=0;bottom=0;right=0;overflow=hidden;rounded=1;labelBackgroundColor=none;" vertex="1" parent="121">
                    <mxGeometry width="87" height="41" as="geometry">
                        <mxRectangle width="87" height="41" as="alternateBounds"/>
                    </mxGeometry>
                </mxCell>
                <mxCell id="123" value="&#10;&lt;span style=&quot;color: rgb(240, 240, 240); font-family: Helvetica; font-size: 12px; font-style: normal; font-variant-ligatures: normal; font-variant-caps: normal; font-weight: 400; letter-spacing: normal; orphans: 2; text-align: center; text-indent: 0px; text-transform: none; widows: 2; word-spacing: 0px; -webkit-text-stroke-width: 0px; background-color: rgb(42, 37, 47); text-decoration-thickness: initial; text-decoration-style: initial; text-decoration-color: initial; float: none; display: inline !important;&quot;&gt;yes&lt;/span&gt;&#10;&#10;" style="shape=partialRectangle;html=1;whiteSpace=wrap;connectable=0;fillColor=none;top=0;left=0;bottom=0;right=0;overflow=hidden;rounded=1;labelBackgroundColor=none;" vertex="1" parent="121">
                    <mxGeometry x="87" width="107" height="41" as="geometry">
                        <mxRectangle width="107" height="41" as="alternateBounds"/>
                    </mxGeometry>
                </mxCell>
                <mxCell id="166" value="no" style="shape=partialRectangle;html=1;whiteSpace=wrap;connectable=0;fillColor=none;top=0;left=0;bottom=0;right=0;overflow=hidden;rounded=1;labelBackgroundColor=none;" vertex="1" parent="121">
                    <mxGeometry x="194" width="95" height="41" as="geometry">
                        <mxRectangle width="95" height="41" as="alternateBounds"/>
                    </mxGeometry>
                </mxCell>
                <mxCell id="172" value="yes&lt;br&gt;(inventory)" style="shape=partialRectangle;html=1;whiteSpace=wrap;connectable=0;fillColor=none;top=0;left=0;bottom=0;right=0;overflow=hidden;rounded=1;labelBackgroundColor=none;" vertex="1" parent="121">
                    <mxGeometry x="289" width="107" height="41" as="geometry">
                        <mxRectangle width="107" height="41" as="alternateBounds"/>
                    </mxGeometry>
                </mxCell>
                <mxCell id="178" value="yes&lt;br&gt;(inventory)" style="shape=partialRectangle;html=1;whiteSpace=wrap;connectable=0;fillColor=none;top=0;left=0;bottom=0;right=0;overflow=hidden;rounded=1;labelBackgroundColor=none;" vertex="1" parent="121">
                    <mxGeometry x="396" width="94" height="41" as="geometry">
                        <mxRectangle width="94" height="41" as="alternateBounds"/>
                    </mxGeometry>
                </mxCell>
                <mxCell id="184" value="no" style="shape=partialRectangle;html=1;whiteSpace=wrap;connectable=0;fillColor=none;top=0;left=0;bottom=0;right=0;overflow=hidden;rounded=1;labelBackgroundColor=none;" vertex="1" parent="121">
                    <mxGeometry x="490" width="96" height="41" as="geometry">
                        <mxRectangle width="96" height="41" as="alternateBounds"/>
                    </mxGeometry>
                </mxCell>
                <mxCell id="125" value="" style="shape=tableRow;horizontal=0;startSize=0;swimlaneHead=0;swimlaneBody=0;top=0;left=0;bottom=0;right=0;collapsible=0;dropTarget=0;fillColor=none;points=[[0,0.5],[1,0.5]];portConstraint=eastwest;rounded=1;labelBackgroundColor=none;" vertex="1" parent="116">
                    <mxGeometry y="224" width="585.75" height="41" as="geometry"/>
                </mxCell>
                <mxCell id="126" value="Assign Delivery Task" style="shape=partialRectangle;html=1;whiteSpace=wrap;connectable=0;fillColor=none;top=0;left=0;bottom=0;right=0;overflow=hidden;rounded=1;labelBackgroundColor=none;" vertex="1" parent="125">
                    <mxGeometry width="87" height="41" as="geometry">
                        <mxRectangle width="87" height="41" as="alternateBounds"/>
                    </mxGeometry>
                </mxCell>
                <mxCell id="127" value="&#10;&lt;span style=&quot;color: rgb(240, 240, 240); font-family: Helvetica; font-size: 12px; font-style: normal; font-variant-ligatures: normal; font-variant-caps: normal; font-weight: 400; letter-spacing: normal; orphans: 2; text-align: center; text-indent: 0px; text-transform: none; widows: 2; word-spacing: 0px; -webkit-text-stroke-width: 0px; background-color: rgb(42, 37, 47); text-decoration-thickness: initial; text-decoration-style: initial; text-decoration-color: initial; float: none; display: inline !important;&quot;&gt;yes&lt;/span&gt;&#10;&#10;" style="shape=partialRectangle;html=1;whiteSpace=wrap;connectable=0;fillColor=none;top=0;left=0;bottom=0;right=0;overflow=hidden;rounded=1;labelBackgroundColor=none;" vertex="1" parent="125">
                    <mxGeometry x="87" width="107" height="41" as="geometry">
                        <mxRectangle width="107" height="41" as="alternateBounds"/>
                    </mxGeometry>
                </mxCell>
                <mxCell id="167" value="no" style="shape=partialRectangle;html=1;whiteSpace=wrap;connectable=0;fillColor=none;top=0;left=0;bottom=0;right=0;overflow=hidden;rounded=1;labelBackgroundColor=none;" vertex="1" parent="125">
                    <mxGeometry x="194" width="95" height="41" as="geometry">
                        <mxRectangle width="95" height="41" as="alternateBounds"/>
                    </mxGeometry>
                </mxCell>
                <mxCell id="173" value="yes&lt;br&gt;(Delivery)" style="shape=partialRectangle;html=1;whiteSpace=wrap;connectable=0;fillColor=none;top=0;left=0;bottom=0;right=0;overflow=hidden;rounded=1;labelBackgroundColor=none;" vertex="1" parent="125">
                    <mxGeometry x="289" width="107" height="41" as="geometry">
                        <mxRectangle width="107" height="41" as="alternateBounds"/>
                    </mxGeometry>
                </mxCell>
                <mxCell id="179" value="yes&lt;br&gt;(Delivery)" style="shape=partialRectangle;html=1;whiteSpace=wrap;connectable=0;fillColor=none;top=0;left=0;bottom=0;right=0;overflow=hidden;rounded=1;labelBackgroundColor=none;" vertex="1" parent="125">
                    <mxGeometry x="396" width="94" height="41" as="geometry">
                        <mxRectangle width="94" height="41" as="alternateBounds"/>
                    </mxGeometry>
                </mxCell>
                <mxCell id="185" value="no" style="shape=partialRectangle;html=1;whiteSpace=wrap;connectable=0;fillColor=none;top=0;left=0;bottom=0;right=0;overflow=hidden;rounded=1;labelBackgroundColor=none;" vertex="1" parent="125">
                    <mxGeometry x="490" width="96" height="41" as="geometry">
                        <mxRectangle width="96" height="41" as="alternateBounds"/>
                    </mxGeometry>
                </mxCell>
            </root>
        </mxGraphModel>
    </diagram>
</mxfile>